<?xml version="1.0" encoding="UTF-8" standalone="no"?>
<!-- Created with Inkscape (http://www.inkscape.org/) -->

<svg
   xmlns:osb="http://www.openswatchbook.org/uri/2009/osb"
   xmlns:dc="http://purl.org/dc/elements/1.1/"
   xmlns:cc="http://creativecommons.org/ns#"
   xmlns:rdf="http://www.w3.org/1999/02/22-rdf-syntax-ns#"
   xmlns:svg="http://www.w3.org/2000/svg"
   xmlns="http://www.w3.org/2000/svg"
   xmlns:sodipodi="http://sodipodi.sourceforge.net/DTD/sodipodi-0.dtd"
   xmlns:inkscape="http://www.inkscape.org/namespaces/inkscape"
   width="124.89726"
   height="151.61722"
   viewBox="0 0 33.045734 40.115388"
   version="1.1"
   id="svg8"
   inkscape:version="0.92.1 r15371"
   sodipodi:docname="norway-map-icon.svg">
  <defs
     id="defs2">
    <linearGradient
       id="linearGradient8432"
       osb:paint="solid">
      <stop
         style="stop-color:#00aad4;stop-opacity:1;"
         offset="0"
         id="stop8430" />
    </linearGradient>
  </defs>
  <sodipodi:namedview
     id="base"
     pagecolor="#ffffff"
     bordercolor="#666666"
     borderopacity="1.0"
     inkscape:pageopacity="0.0"
     inkscape:pageshadow="2"
     inkscape:zoom="2.4928431"
     inkscape:cx="-35.288687"
     inkscape:cy="50.200337"
     inkscape:document-units="mm"
     inkscape:current-layer="layer1"
     showgrid="false"
     inkscape:window-width="1920"
     inkscape:window-height="986"
     inkscape:window-x="-11"
     inkscape:window-y="-11"
     inkscape:window-maximized="1"
     showguides="true"
     inkscape:guide-bbox="true"
     fit-margin-top="10"
     fit-margin-left="10"
     fit-margin-right="10"
     fit-margin-bottom="10"
     units="px">
    <inkscape:grid
       type="xygrid"
       id="grid4485"
       originx="-3.9616123"
       originy="-256.42964" />
  </sodipodi:namedview>
  <metadata
     id="metadata5">
    <rdf:RDF>
      <cc:Work
         rdf:about="">
        <dc:format>image/svg+xml</dc:format>
        <dc:type
           rdf:resource="http://purl.org/dc/dcmitype/StillImage" />
        <dc:title />
      </cc:Work>
    </rdf:RDF>
  </metadata>
  <g
     inkscape:label="Layer 1"
     inkscape:groupmode="layer"
     id="layer1"
     transform="translate(-3.9616123,-0.45495671)">
    <path
       inkscape:connector-curvature="0"
       style="fill:#6b88ca;fill-opacity:1;stroke:#000000;stroke-width:0.03594395"
       d="m 31.090798,7.5165126 c -0.03769,-1.616e-4 -0.08073,0.023323 -0.119372,0.069763 -0.04529,0.054743 0.05681,0.2633581 -0.04599,0.2082562 -0.120409,-0.064412 -0.18655,-0.023699 -0.18655,0.1147215 0,0.1272061 0.115126,0.2460683 0.163296,0.1684652 0.03954,-0.064052 0.117824,-0.016161 0.117824,0.07183 0,0.037166 -0.138157,0.094698 -0.117306,0.1612302 0.02122,0.066532 0.0087,0.093534 -0.04341,0.093534 -0.0798,0 -0.103587,0.1696008 -0.02739,0.1953368 0.02803,0.00942 -0.06614,0.2874161 -0.04134,0.3265951 0.05787,0.091298 0.05158,0.1338421 -0.02066,0.1338421 -0.03451,0 -0.09253,0.058381 -0.129191,0.129191 -0.06399,0.1254445 -0.06628,0.1212213 -0.07958,-0.1638144 C 30.548529,8.7622466 30.53694,8.732459 30.447434,8.732459 H 30.3477 l 0.10542,-0.1121378 c 0.10963,-0.1166738 0.108905,-0.1269434 -0.02479,-0.5849771 -0.02768,-0.093957 -0.287534,0.2506091 -0.344684,0.4568196 -0.02588,0.093598 -0.04754,0.2075296 -0.04754,0.2532147 -2.65e-4,0.045685 -0.08656,0.2549728 -0.192238,0.4656045 -0.173972,0.3461406 -0.185484,0.3876929 -0.115755,0.4387328 0.07081,0.052119 0.06928,0.072236 -0.02273,0.2490806 -0.05535,0.1056747 -0.118475,0.1817637 -0.140044,0.1684647 -0.02156,-0.0133 -0.135843,0.108838 -0.136943,-0.03566 -0.0011,-0.11538 0.02273,-0.1865093 0.06873,-0.2041223 0.08483,-0.032709 -0.03338,-0.2538484 0.0155,-0.2883543 0.04889,-0.034147 0.05169,-0.082836 0.01394,-0.2201418 -0.04098,-0.14737 -0.03335,-0.2067936 0.04393,-0.3581175 0.05069,-0.099816 0.11562,-0.1813843 0.143661,-0.1813843 0.02838,0 0.01831,-0.1875857 0.03772,-0.1875857 0.07117,0 0.150193,-0.246095 0.09663,-0.2997231 -0.03666,-0.036841 -0.164611,-0.019958 -0.199472,0.00103 -0.03949,0.023903 -0.03729,0.00996 0.0062,-0.043925 0.03558,-0.043636 0.09704,-0.079065 0.136943,-0.079065 0.09238,0 0.243914,-0.1360281 0.243914,-0.2185911 0,-0.087343 -0.09055,-0.079066 -0.125058,0.011369 -0.02228,0.058337 -0.08288,-0.073101 -0.05736,-0.1038695 0.05823,-0.069983 -0.02611,-0.130732 -0.127124,-0.091984 -0.0399,0.015311 -0.21871,-0.084041 -0.269751,-0.033073 -0.01797,0.018007 0.161748,0.1432597 0,0.1736328 -0.129753,0.024297 -0.170531,0.0552 -0.170531,0.1271241 0,0.076632 0.195267,0.046534 0.176217,0.066662 -0.01905,0.020164 0.07209,0.1783387 -5.29e-4,0.1214395 -0.07117,-0.055785 -0.08216,-0.054148 -0.08216,0.01447 0,0.043528 0.02114,0.1191226 0.04702,0.1674315 0.03163,0.058696 -0.04702,0.1241732 -0.04702,0.098185 0,-0.025987 -0.05016,-0.1011148 -0.111621,-0.1674318 -0.101003,-0.1088379 -0.179702,0.040728 -0.240812,-0.042375 -0.07333,-0.099349 -0.209807,-0.07283 -0.209807,0.040824 0,0.040293 0.134893,0.1386629 0.08888,0.1669148 -0.04709,0.029258 0.07015,0.2035897 -0.05529,0.1235067 -0.07153,-0.045757 -0.148399,-0.07186 -0.171049,-0.057878 -0.07584,0.046979 0.0044,0.2047626 0.131258,0.2573488 0.06937,0.028647 0.153279,0.095789 0.187069,0.1493449 0.05895,0.094531 -0.225427,-0.074414 -0.284737,0.095601 -0.04852,0.139463 -0.05454,0.1425911 -0.0894,0.048059 -0.02049,-0.055354 -0.09064,-0.1140497 -0.156063,-0.1302247 -0.06578,-0.016534 -0.152649,-0.1136883 -0.193269,-0.1136883 -0.04781,0 -0.06396,0.3206901 -0.15813,0.350883 -0.05032,0.015817 -0.08064,0.056647 -0.0677,0.090434 0.01402,0.035944 -0.01893,0.072911 -0.07751,0.088367 -0.0647,0.016894 -0.0496,0.1289185 -0.07906,0.1105873 -0.06398,-0.039538 -0.186814,0.1563243 -0.163814,0.2619997 0.01581,0.074404 0.06841,0.1025869 0.163297,0.08785 0.01905,-0.00324 0.03462,0.024474 0.03462,0.061495 0,0.1531213 0.100181,0.1102223 0.234611,-0.1007693 0.104236,-0.1639043 0.136309,-0.2605074 0.11834,-0.3586342 -0.01977,-0.1103482 -0.01269,-0.1255009 0.03979,-0.081649 0.03558,0.029116 0.100798,0.039474 0.145728,0.02222 0.05608,-0.021566 0.02877,0.044464 -0.08733,0.2098064 -0.09345,0.1326332 -0.16463,0.2570588 -0.15813,0.2764689 0.0065,0.01941 -0.0353,0.082848 -0.09353,0.1410765 -0.09022,0.09022 -0.09714,0.119675 -0.04754,0.199471 0.03235,0.0514 0.07855,0.09302 0.103353,0.09302 0.02444,0 -0.136775,0.14158 -0.04547,0.21239 0.05104,0.03918 0.119375,0.06064 0.152445,0.04806 0.114657,-0.04385 0.05932,0.0147 -0.07906,0.08372 -0.07656,0.0381 -0.137592,0.05565 -0.135392,0.03876 0.01222,-0.09238 -0.0124,-0.150577 -0.05374,-0.125057 -0.0266,0.01653 -0.04702,-0.02171 -0.04702,-0.08785 0,-0.06434 -0.02115,-0.130069 -0.04703,-0.146244 -0.02552,-0.01582 -0.04651,-0.0071 -0.04651,0.01912 0,0.0266 -0.04755,0.07118 -0.10542,0.09922 -0.0895,0.04313 -0.09391,0.04142 -0.03101,-0.01033 0.04098,-0.03379 0.09931,-0.108686 0.130225,-0.166915 0.05104,-0.09562 0.04595,-0.104903 -0.05685,-0.104903 -0.06218,0 -0.176765,-0.01297 -0.254764,-0.02842 -0.11322,-0.02265 -0.187537,0.131223 -0.192237,0.04496 -0.005,-0.09309 -0.142112,-0.16945 -0.320394,-0.1788 -0.03127,-0.0018 -0.08866,-0.045235 -0.127124,-0.096635 -0.06793,-0.089859 -0.08019,-0.080887 -0.09457,0.070797 -0.004,0.038819 -0.11989,0.07015 -0.11989,0.098186 0,0.09058 -0.20456,0.224427 -0.28112,0.183451 -0.03882,-0.02085 0.294519,0.327629 0.345199,0.327629 0.138384,0 0.344232,0.159671 0.330212,0.255281 -0.0076,0.0496 0.0072,0.12861 0.03204,0.1757 0.08483,0.158513 -0.02659,0.09193 -0.282154,-0.167948 -0.08447,-0.08626 -0.160962,-0.125301 -0.208772,-0.10697 -0.08878,0.03415 -0.06221,0.296847 -0.04496,0.324527 0.01833,0.02947 -0.154517,0.115869 -0.179317,0.100769 -0.02588,-0.01617 -0.01217,-0.06393 0.03204,-0.113171 0.05895,-0.06506 0.06529,-0.106487 0.02791,-0.176217 -0.02695,-0.05032 -0.02141,-0.155349 -0.04909,-0.172599 -0.02768,-0.0169 -0.06376,0.0026 -0.07958,0.04392 -0.0478,0.124726 -0.160984,-0.08122 -0.146244,-0.265617 0.01078,-0.134789 -0.0037,-0.156446 -0.10542,-0.167948 -0.08879,-0.0097 -0.13149,0.01803 -0.1757,0.114721 -0.07728,0.169297 -0.07402,0.271962 0.01188,0.343132 0.05643,0.04709 0.147623,0.03394 0.226343,-0.0078 0.09022,-0.04816 0.09478,-0.04567 0.03979,0.02119 -0.04748,0.05751 -0.04961,0.09775 -0.0083,0.174666 0.04493,0.08411 0.06579,0.09011 0.132291,0.03979 0.0665,-0.04993 0.06939,-0.04899 0.02015,0.0067 -0.03235,0.03594 -0.05891,0.105152 -0.05891,0.152962 0,0.04997 -0.02137,0.07378 -0.05013,0.05581 -0.0273,-0.01689 -0.03846,-0.06018 -0.0248,-0.09612 0.01402,-0.03631 -0.0032,-0.06615 -0.03876,-0.06615 -0.06649,0 -0.120406,0.09829 -0.120406,0.220142 0,0.04777 0.02753,0.06194 0.08217,0.04289 0.07445,-0.02588 0.07505,-0.02291 0.0057,0.03101 -0.08519,0.06686 -0.101456,0.292777 -0.03101,0.426848 0.03194,0.06073 0.03074,0.0779 -0.0041,0.05633 -0.02911,-0.01762 -0.06368,0.0218 -0.08165,0.09405 -0.0284,0.11287 -0.03593,0.117071 -0.07906,0.03979 -0.02944,-0.05283 -0.03078,-0.09125 -0.0031,-0.100253 0.05071,-0.01689 0.04659,-0.818363 -0.0052,-0.901753 -0.03954,-0.0647 -0.211873,0.06805 -0.211873,0.163297 0,0.03163 -0.03115,0.08309 -0.06925,0.114722 -0.03846,0.03163 -0.09075,0.133603 -0.116272,0.226343 -0.03738,0.135868 -0.03149,0.184407 0.02997,0.252697 0.0931,0.102801 0.05,0.112889 -0.05064,0.01189 -0.04817,-0.04816 -0.06277,-0.117944 -0.04444,-0.210324 0.02301,-0.11538 0.0093,-0.14465 -0.08268,-0.1788 l -0.110587,-0.04082 0.10852,-0.03411 c 0.05931,-0.01905 0.0967,-0.04628 0.08268,-0.05994 -0.01402,-0.01402 -0.003,-0.06714 0.02429,-0.117822 0.0306,-0.05715 0.03316,-0.109826 0.0062,-0.136425 -0.05463,-0.05499 -0.315308,0.308855 -0.271818,0.379305 0.01689,0.02731 0.0076,0.04909 -0.02119,0.04909 -0.0284,0 -0.104125,0.05297 -0.168465,0.117306 -0.0647,0.06434 -0.110853,0.08762 -0.103353,0.05168 0.01474,-0.07009 -0.21638,-0.309025 -0.29869,-0.309025 -0.02734,0 -0.03929,0.04099 -0.02635,0.09095 0.01869,0.07081 -0.0063,0.09756 -0.111621,0.120922 -0.161026,0.03523 -0.179858,0.147457 -0.02997,0.176217 0.0762,0.01474 0.06348,0.02269 -0.04651,0.02739 -0.1542,0.0065 -0.213385,0.110892 -0.09405,0.165882 0.03199,0.01474 0.01084,0.0149 -0.04703,5.29e-4 -0.07405,-0.01833 -0.115529,-0.0012 -0.137459,0.05633 -0.01834,0.04744 -0.0084,0.08999 0.02325,0.100769 0.03055,0.01006 0.05581,0.05038 0.05581,0.08992 0,0.03918 0.0264,0.06131 0.05839,0.04909 0.236892,-0.08914 0.257575,-0.0864 0.235645,0.02791 -0.01546,0.08087 0.01371,0.138903 0.106453,0.211873 0.07009,0.055 0.119254,0.10207 0.109554,0.10387 -0.157075,0.03127 -0.181901,0.02637 -0.181901,-0.03617 0,-0.04421 -0.02659,-0.06081 -0.0708,-0.04392 -0.05499,0.02121 -0.06498,0.0027 -0.04341,-0.0832 0.01546,-0.06147 0.0043,-0.125691 -0.0248,-0.143661 -0.07728,-0.04781 -0.188506,0.06362 -0.153996,0.153479 0.02624,0.06797 0.02066,0.06902 -0.04547,0.0083 -0.04098,-0.0381 -0.157948,-0.179096 -0.145728,-0.225826 0.01474,-0.05572 -0.01783,-0.100799 -0.0987,-0.137459 -0.103881,-0.04745 -0.120204,-0.04389 -0.120923,0.02584 -3.44e-4,0.06434 -0.0091,0.06794 -0.04186,0.01654 -0.02228,-0.03559 -0.06493,-0.05001 -0.09405,-0.03204 -0.02876,0.01797 -0.0571,0.123356 -0.121439,0.139527 -0.12077,0.03019 -0.15187,0.09386 -0.07028,0.144177 0.08554,0.05283 0.04867,0.105936 -0.0739,0.105936 -0.15384,0 -0.257338,0.09224 -0.166398,0.148312 0.04602,0.0284 0.04832,0.04791 0.0088,0.07235 -0.04098,0.02552 -0.04082,0.04962 5.29e-4,0.09922 0.02983,0.0359 0.07312,0.05381 0.09612,0.03979 0.023,-0.01402 0.04134,-0.003 0.04134,0.02429 0,0.02731 -0.04213,0.04961 -0.09353,0.04961 -0.115019,0 -0.126547,0.09252 -0.01189,0.09612 0.06902,0.0018 0.06517,0.01414 -0.02325,0.07596 -0.136944,0.09561 -0.145956,0.268596 -0.01188,0.225826 0.06613,-0.02085 0.09353,-0.0083 0.09353,0.04237 0,0.04457 0.02643,0.06185 0.07028,0.04496 0.03846,-0.01474 0.07028,-0.05328 0.07028,-0.08527 0,-0.09633 0.179585,-0.22754 0.334863,-0.24443 0.12544,-0.01365 0.137653,-0.006 0.08733,0.05478 -0.03235,0.03882 -0.0974,0.07028 -0.145211,0.07028 -0.08339,0 -0.182934,0.127543 -0.182934,0.233578 0,0.02876 0.03672,0.04574 0.08165,0.03824 0.0625,-0.01042 0.07852,0.013 0.06666,0.09819 -0.01186,0.08231 0.0022,0.104833 0.05219,0.08578 0.05571,-0.0212 0.05871,-0.0063 0.01809,0.07958 -0.02731,0.05787 -0.07814,0.10542 -0.112654,0.10542 -0.04098,0 -0.04657,-0.0158 -0.01602,-0.04599 0.06434,-0.0647 -0.02999,-0.233485 -0.104386,-0.186035 -0.03091,0.01941 -0.07008,0.03581 -0.08733,0.03617 -0.08483,0.0018 -0.07644,0.07172 0.02635,0.223759 0.11071,0.163182 0.111297,0.167123 0.01964,0.191203 -0.0629,0.01617 -0.03501,0.136425 -0.08785,0.09508 -0.07189,-0.05679 -0.245443,-0.01432 -0.299723,0.07338 -0.06901,0.111785 -0.109806,0.03693 -0.09974,-0.184485 0.0068,-0.153125 -0.008,-0.234612 -0.04392,-0.234612 -0.02983,0 -0.0928,-0.04162 -0.139527,-0.09302 -0.09813,-0.10891 -0.185691,-0.125158 -0.148311,-0.02739 0.01438,0.03667 -0.0058,0.09275 -0.04393,0.124024 -0.06002,0.04996 -0.056,0.0709 0.02739,0.15968 l 0.09612,0.102319 -0.106453,-0.0036 c -0.08015,-0.0029 -0.105336,0.02142 -0.102836,0.0987 0.0022,0.05643 -0.01737,0.09905 -0.04289,0.09405 -0.02552,-0.005 -0.07421,0.04366 -0.108003,0.108004 -0.06074,0.115019 -0.06181,0.115405 -0.06253,0.01188 -3.7e-4,-0.05822 0.01719,-0.105936 0.03876,-0.105936 0.07189,0 0.154549,-0.239657 0.103869,-0.300757 -0.08195,-0.09885 -0.02306,-0.399028 0.104903,-0.533818 0.07081,-0.07476 0.07449,-0.130502 -0.02687,-0.02015 -0.05356,0.05787 -0.140744,0.104588 -0.194304,0.103869 -0.08843,-0.0014 -0.08975,-0.0061 -0.01499,-0.04961 0.04493,-0.02624 0.08165,-0.06837 0.08165,-0.09353 0,-0.02552 0.0351,-0.09979 0.07751,-0.164848 0.08662,-0.131914 0.117362,-0.35285 0.06201,-0.44235 -0.04457,-0.07225 -0.280086,0.144484 -0.280086,0.257348 0,0.0399 -0.02083,0.07235 -0.04599,0.07235 -0.06614,0 -0.235128,0.35052 -0.235128,0.487826 0,0.06722 0.04384,0.147086 0.10387,0.189136 0.0942,0.06581 0.09586,0.08111 0.0067,0.06925 -0.06434,-0.0086 -0.101078,0.120584 -0.077,0.269751 0.02121,0.130477 0.0046,0.172565 -0.101803,0.256315 -0.09201,0.07225 -0.121553,0.1314 -0.106453,0.21084 0.0115,0.06075 -0.0088,0.147463 -0.04548,0.192753 -0.06003,0.07405 -0.06136,0.07148 -0.01499,-0.02377 0.05787,-0.11969 0.01344,-0.135511 -0.115238,-0.04134 -0.04817,0.03524 -0.129311,0.05257 -0.180351,0.03927 -0.05751,-0.0151 -0.116883,0.009 -0.156063,0.06253 -0.03558,0.04889 -0.08585,-0.01689 -0.113171,0 -0.02768,0.01725 -0.02591,0.148148 -0.06976,0.131258 -0.04852,-0.01869 -0.0677,0.0093 -0.0677,0.09664 0,0.154545 -0.0924,0.156535 -0.206706,0.0041 -0.08339,-0.11143 -0.09411,-0.113471 -0.1757,-0.03979 -0.04745,0.04311 -0.0863,0.06396 -0.0863,0.04599 0,-0.08159 -0.182553,0.07691 -0.195853,0.170015 -0.01006,0.07261 -0.04182,0.101011 -0.100769,0.09095 -0.055,-0.0093 -0.09509,0.02077 -0.111621,0.08475 -0.01474,0.05607 -0.05179,0.0889 -0.0863,0.07596 -0.03343,-0.01294 -0.09358,0.02727 -0.133842,0.08837 -0.09884,0.150605 -0.215912,0.499517 -0.185002,0.549837 0.02516,0.04062 0.165787,-0.09527 0.296623,-0.285771 0.03774,-0.05535 0.106279,-0.112744 0.151929,-0.127124 0.04601,-0.01438 0.08598,-0.0726 0.08888,-0.128674 0.0047,-0.08303 0.0098,-0.08586 0.02739,-0.01757 0.01761,0.06794 0.170225,-0.01463 0.186035,0.0016 0.02983,0.02983 0.203088,-0.143778 0.203088,-0.203088 0,-0.01762 0.05261,-0.0558 0.117306,-0.08527 0.09597,-0.04385 0.117305,-0.04113 0.117305,0.01602 0,0.08521 0.01092,0.08489 0.208256,0.0026 0.08734,-0.03667 0.214841,-0.04137 0.217041,-0.07803 0.0018,-0.0363 0.08081,-0.128282 0.1757,-0.204122 0.09453,-0.07581 0.146039,-0.108804 0.113688,-0.07286 -0.0841,0.09345 -0.07233,0.140043 0.03514,0.140043 0.0514,0 0.09353,-0.01834 0.09353,-0.04134 0,-0.08123 0.155178,-0.100329 0.259415,-0.03204 0.09417,0.06183 0.112911,0.06068 0.177251,-0.01085 0.03954,-0.04385 0.08839,-0.142501 0.10852,-0.220141 l 0.03669,-0.14056 0.03101,0.14056 0.03049,0.14056 0.08268,-0.196371 c 0.04565,-0.108191 0.110747,-0.207201 0.144177,-0.220141 0.03846,-0.01474 0.02624,0.03578 -0.03307,0.136425 -0.05212,0.08806 -0.08228,0.180199 -0.06718,0.204639 0.03019,0.04888 0.307991,-0.07011 0.307991,-0.132292 0,-0.02018 0.05245,-0.02669 0.116789,-0.01447 0.06506,0.01222 0.16908,-0.01169 0.23306,-0.05374 0.143369,-0.09382 0.17006,-0.09467 0.135909,-0.0052 -0.04637,0.121128 0.164461,0.08177 0.289905,-0.05374 0.12221,-0.131918 0.146906,-0.117667 0.0646,0.03617 -0.03703,0.06937 -0.03444,0.114369 0.01085,0.172599 0.04601,0.05935 0.03562,0.0572 -0.04237,-0.0093 -0.102439,-0.08735 -0.104618,-0.08745 -0.148828,0.02325 -0.0248,0.06147 -0.07269,0.0034 -0.151412,0.04547 -0.08196,0.04385 -0.108117,0.03976 -0.142627,-0.0217 -0.05607,-0.100644 -0.268309,-0.09451 -0.406693,0.01188 l -0.111105,0.08527 0.172083,0.106454 c 0.09489,0.05859 0.162082,0.116611 0.149862,0.129191 -0.01258,0.01258 -0.09492,-0.03133 -0.181901,-0.09818 -0.122206,-0.09274 -0.171171,-0.108399 -0.213941,-0.06563 -0.07728,0.07728 -0.06883,0.130224 0.02067,0.130224 0.06218,0 0.06538,0.01277 0.01757,0.07028 -0.05032,0.06038 -0.03897,0.06682 0.08217,0.04237 0.0895,-0.01797 0.15389,-0.0069 0.17725,0.03049 0.02336,0.0381 -0.07183,0.01371 -0.07183,0.04031 0,0.0266 -0.02933,0.03676 -0.06563,0.02274 -0.104241,-0.0399 -0.134304,0.06618 -0.03617,0.12764 0.121135,0.07548 0.0795,0.232097 -0.05529,0.209807 -0.08298,-0.0133 -0.09847,-0.04367 -0.08733,-0.17415 0.01366,-0.158513 -0.06501,-0.369486 -0.137976,-0.369486 -0.02157,0 -0.06172,0.141077 -0.0894,0.141077 -0.02801,0 -0.03736,0.03939 -0.02119,0.09043 0.02012,0.0629 -6.88e-4,0.106521 -0.06718,0.14211 -0.05607,0.03016 -0.09612,0.0326 -0.09612,0.0067 0,-0.02445 0.02068,-0.05135 0.04548,-0.05995 0.02911,-0.0097 0.02844,-0.04101 -0.001,-0.0863 -0.0399,-0.06075 -0.0531,-0.05827 -0.09767,0.01757 -0.03882,0.06578 -0.06017,0.07335 -0.08785,0.02842 -0.02552,-0.04134 -0.06076,-0.01306 -0.115755,0.09405 -0.07257,0.139825 -0.0731,0.159446 -0.0052,0.227376 0.06826,0.06824 0.07493,0.068 0.07493,-0.0057 0,-0.05139 0.03654,-0.0801 0.102319,-0.0801 0.10064,0 0.100665,0.0015 0.01188,0.06873 -0.0514,0.03882 -0.06563,0.06918 -0.03256,0.07028 0.07405,0.0018 0.07767,0.09509 0.0036,0.09509 -0.03019,0 -0.09311,0.03526 -0.14056,0.07803 -0.04708,0.04282 -0.101873,0.0608 -0.120923,0.04031 -0.01905,-0.02049 -0.0074,-0.04757 0.02635,-0.05943 0.04493,-0.01618 0.03929,-0.03833 -0.02325,-0.08578 -0.113223,-0.08558 -0.24908,-0.08388 -0.24908,0.0031 0,0.03882 0.13129,0.08938 0.05581,0.110587 -0.05931,0.01653 -0.105003,0.04819 -0.101802,0.06976 0.0032,0.02193 -0.03249,0.06912 -0.07958,0.105419 -0.08018,0.06182 -0.08013,0.07008 -0.0047,0.128675 0.07153,0.05571 0.07231,0.07265 0.01085,0.160713 -0.03806,0.05428 -0.05035,0.110004 -0.02842,0.124024 0.05787,0.03558 0.472371,-0.237164 0.512631,-0.337447 0.03235,-0.08052 0.03703,-0.08052 0.115755,0 0.078,0.07975 0.07746,0.08372 -0.02067,0.08372 -0.10064,0 -0.100869,0.0013 -0.01137,0.07286 0.08807,0.07009 0.08723,0.07148 -0.01809,0.04237 -0.0762,-0.02121 -0.129016,-0.0041 -0.174667,0.05633 -0.08588,0.113582 -0.08507,0.173474 0.0016,0.140043 0.05716,-0.02193 0.05956,-0.01107 0.01499,0.06046 -0.04457,0.07117 -0.07069,0.07744 -0.14366,0.03359 -0.07728,-0.04637 -0.114609,-0.02552 -0.274919,0.153479 -0.102085,0.113942 -0.175517,0.232953 -0.163297,0.264583 0.01186,0.03127 -0.02929,0.104707 -0.09147,0.163298 -0.08662,0.08124 -0.100878,0.121171 -0.06098,0.168982 0.03846,0.04637 -0.05273,0.09008 -0.03979,0.123506 0.01258,0.03307 -0.0064,0.100465 -0.04237,0.149345 -0.06286,0.08591 -0.06511,0.08537 -0.06511,-0.0124 0,-0.07661 -0.01947,-0.0938 -0.08165,-0.0708 -0.107474,0.03954 -0.150829,0.106808 -0.151929,0.235128 -3.7e-4,0.07225 -0.222636,0.182155 -0.208256,0.205155 0.01438,0.02301 -0.0391,0.04186 -0.117822,0.04186 -0.160307,0 -0.194823,0.08902 -0.04961,0.127124 0.0514,0.0133 0.09405,0.04168 0.09405,0.06253 0,0.02085 0.03573,0.07449 0.07958,0.118339 0.07512,0.07512 0.07305,0.0772 -0.03514,0.04341 -0.06326,-0.01941 -0.121624,-0.05367 -0.130224,-0.07596 -0.0086,-0.02265 -0.06471,-0.04083 -0.124024,-0.04083 -0.07872,0 -0.113851,0.03246 -0.130741,0.121957 -0.02157,0.11107 -0.01259,0.119995 0.103869,0.09663 0.08267,-0.01653 0.127125,-0.0055 0.127125,0.03152 0,0.03772 -0.05497,0.05098 -0.15813,0.03876 -0.108905,-0.01258 -0.153478,-4.77e-4 -0.144178,0.03979 0.0072,0.03163 -0.01313,0.06772 -0.04547,0.07958 -0.03271,0.01222 -0.05839,-0.01544 -0.05839,-0.06253 0,-0.122928 -0.0812,-0.0211 -0.116789,0.146761 -0.02803,0.13048 -0.02511,0.134096 0.04031,0.05323 0.078,-0.09561 0.191718,-0.06009 0.150378,0.04703 -0.01438,0.03738 0.0078,0.12545 0.04909,0.19482 l 0.07441,0.126091 -0.10387,-0.130225 c -0.07009,-0.08806 -0.130952,-0.121323 -0.188102,-0.103353 -0.04673,0.01473 -0.09921,0.0046 -0.115755,-0.02274 -0.04026,-0.0647 -0.117823,-0.01581 -0.117823,0.07441 0,0.03848 0.02115,0.05752 0.04703,0.04134 0.0665,-0.04097 0.241483,0.02106 0.208773,0.0739 -0.01473,0.02372 8.46e-4,0.04408 0.03462,0.04444 0.04456,3.71e-4 0.04174,0.01261 -0.0093,0.04496 -0.05032,0.03163 -0.07774,0.02311 -0.09715,-0.03152 -0.02264,-0.0647 -0.04097,-0.06006 -0.128674,0.03411 -0.07512,0.08015 -0.08665,0.119331 -0.04496,0.145211 0.03127,0.01941 0.08424,0.01285 0.117305,-0.01447 0.04493,-0.03702 0.05994,-0.03048 0.05994,0.02739 0,0.04242 0.03296,0.09032 0.07286,0.10542 0.05931,0.02301 0.05256,0.03905 -0.03514,0.08578 -0.08698,0.04596 -0.11834,0.04448 -0.15968,-0.0062 -0.04242,-0.0514 -0.06706,-0.04607 -0.136426,0.03049 -0.06183,0.06793 -0.06704,0.09354 -0.02067,0.09354 0.05033,0 0.05118,0.01151 0.0052,0.05788 -0.04637,0.04638 -0.06573,0.04583 -0.09664,-0.0041 -0.03163,-0.0514 -0.06511,-0.0491 -0.185518,0.01344 -0.167501,0.08663 -0.20127,0.190833 -0.04599,0.141593 0.08663,-0.02768 0.08157,-0.01306 -0.03669,0.102319 -0.126163,0.123287 -0.190473,0.345199 -0.100253,0.345199 0.02084,0 0.02595,0.05786 0.01085,0.128674 l -0.02739,0.128675 0.07131,-0.116789 c 0.07404,-0.12149 0.09252,-0.08912 0.07958,0.14056 -0.0115,0.205595 -0.01956,0.234094 -0.06304,0.234094 -0.02372,0 -0.02878,0.06411 -0.01189,0.14211 0.02301,0.103879 0.01496,0.138491 -0.02997,0.129191 -0.03702,-0.0083 -0.07278,0.05133 -0.09147,0.150896 -0.01653,0.09025 -0.0519,-0.0125 -0.112655,0.09353 -0.08593,0.149932 -0.08696,0.190793 -0.0047,0.159163 0.05648,-0.02157 0.0567,3.71e-4 0.0021,0.153479 -0.09202,0.258389 -0.08761,0.310458 0.02274,0.251148 0.05715,-0.03056 0.101246,-0.03202 0.118856,-0.0036 0.01546,0.0248 0.18086,-0.0057 0.12299,0.06511 -0.05679,0.07009 -0.05437,0.08891 0.0186,0.14211 0.07516,0.05499 0.07585,0.06404 0.0083,0.08992 -0.07188,0.02768 -0.139349,-0.03061 -0.151929,-0.131258 -0.0029,-0.02552 -0.0098,-0.07849 -0.01447,-0.117306 -0.0065,-0.0514 -0.0343,-0.03879 -0.104386,0.04496 -0.07332,0.08806 -0.104372,0.100003 -0.133842,0.05219 -0.0212,-0.03419 -0.06037,-0.04857 -0.08733,-0.03204 -0.07117,0.04421 -0.04726,0.08366 -0.132809,0.180351 -0.270303,0.306604 -0.344165,0.381839 -0.344165,0.349849 0,-0.01977 -0.187585,0.04673 -0.187585,0.02481 0,-0.02157 -0.02605,-0.07469 -0.0584,-0.117823 -0.05176,-0.06973 -0.07895,-0.07121 -0.239262,-0.0155 -0.182959,0.06362 -0.262449,0.14125 -0.26355,0.257349 -7.14e-4,0.04637 0.03542,0.05536 0.128158,0.03307 0.07081,-0.01692 0.307927,-0.02487 0.355017,-0.02377 0.05535,0.0011 0.06404,0.138426 0.114722,0.139526 0.06002,0.0011 -0.129432,0.135843 -0.07803,0.136942 0.0417,0.0011 0.131855,-0.04271 0.200505,-0.09663 0.07369,-0.05787 0.157078,-0.08582 0.203088,-0.06821 0.06362,0.02445 0.0522,0.0431 -0.05994,0.100252 -0.0762,0.03846 -0.159122,0.09585 -0.185002,0.127124 -0.02552,0.03091 -0.109789,0.06301 -0.187069,0.07131 -0.183316,0.01941 -0.260255,0.0937 -0.157096,0.151928 0.04854,0.02732 0.06869,0.07903 0.05323,0.137976 -0.01833,0.07013 -0.0068,0.08798 0.04496,0.06821 0.03954,-0.01509 0.08237,0.005 0.09819,0.04599 0.03738,0.09739 0.111827,0.09242 0.144177,-0.0093 0.01438,-0.04529 0.07354,-0.111181 0.131774,-0.146761 l 0.106454,-0.0646 -0.211357,0.26355 c 0,0.01869 -0.19792,0.240812 -0.19792,0.240812 l -0.0016,-0.198438 c -0.04493,0.01725 -0.0899,-0.01731 -0.127641,-0.09819 -0.113588,-0.244821 -0.128565,-0.265362 -0.168465,-0.242362 -0.02228,0.01294 -0.03414,0.07393 -0.02584,0.135392 0.01114,0.08625 -0.0024,0.105646 -0.05994,0.08372 -0.04098,-0.01581 -0.0941,0.05556 -0.117823,0.04082 -0.08627,-0.0532 -0.104467,0.07606 -0.01964,0.140044 0.04997,0.0381 0.06221,0.06646 0.02842,0.06718 -0.03199,0.0011 -0.08314,-0.03845 -0.113688,-0.08733 -0.03056,-0.04925 -0.08123,-0.07956 -0.112138,-0.0677 -0.03091,0.01186 -0.15161,-0.01212 -0.12609,0.03927 0.05535,0.111786 0.04525,0.328078 -0.0155,0.329179 -0.07872,0.0014 -0.13832,0.163297 -0.1757,0.163297 -0.07584,0 -0.146284,0.127273 -0.128674,0.23151 0.01007,0.05931 0.0011,0.05947 -0.06976,5.3e-4 -0.07332,-0.06075 -0.07765,-0.05813 -0.04961,0.03101 0.02013,0.06254 0.005,0.120389 -0.04031,0.158129 -0.09128,0.07549 -0.09229,0.159567 -0.0021,0.125057 0.10891,-0.04205 0.131154,0.05261 0.02584,0.109038 -0.05248,0.02804 -0.27567,0.147236 -0.35295,0.173116 -0.08627,0.0284 -0.142978,0.08092 -0.147278,0.135909 -0.0036,0.0496 -0.02146,0.126792 -0.03979,0.172082 -0.02372,0.05787 -0.01134,0.08217 0.04186,0.08217 0.04133,0 0.07493,-0.01869 0.07493,-0.04134 0,-0.023 0.05312,-0.05186 0.117822,-0.06408 0.09633,-0.01869 0.108132,-0.01067 0.06356,0.04289 -0.06398,0.07692 0.03295,0.435 0.118856,0.4408 0.180079,0.01186 0.449693,0.05357 0.588078,0.09095 0.08842,0.02406 0.169414,0.03486 0.179834,0.0248 0.02624,-0.0266 -0.320119,-0.118856 -0.447002,-0.118856 -0.150242,-3.7e-4 -0.130764,-0.07741 0.02739,-0.109037 0.07333,-0.01474 0.184317,-0.07995 0.246497,-0.145727 0.06182,-0.06541 0.141356,-0.119529 0.176216,-0.119889 0.09453,-0.0011 0.334863,-0.278035 0.334863,-0.385507 0,-0.06542 -0.02218,-0.08556 -0.07286,-0.06614 -0.0399,0.01546 0.0076,-0.05043 0.10542,-0.146762 0.09813,-0.09633 0.185186,-0.15997 0.193786,-0.14056 0.0086,0.01941 0.0616,0.03696 0.117306,0.03876 0.07476,0.0025 0.08277,0.01178 0.03101,0.03514 -0.161388,0.07297 -0.327629,0.210911 -0.327629,0.271301 0,0.09813 0.124554,0.07817 0.232027,-0.03721 0.05284,-0.05643 0.0956,-0.08185 0.0956,-0.05633 0,0.02552 -0.02605,0.07437 -0.0584,0.10852 -0.04673,0.0496 -0.04673,0.06631 0,0.0832 0.03235,0.01186 0.0584,0.03941 0.0584,0.06098 0,0.0514 -0.271854,0.187069 -0.374655,0.187069 -0.04349,0 -0.117084,0.04213 -0.163814,0.09353 -0.04673,0.05176 -0.110997,0.09405 -0.142627,0.09405 -0.07153,0 -0.185581,0.133105 -0.146761,0.171565 0.01581,0.01581 0.08071,-0.0058 0.144694,-0.04754 0.06614,-0.04349 0.128201,-0.0572 0.143661,-0.03204 0.01474,0.02408 -0.01755,0.06752 -0.07183,0.09663 -0.05823,0.03127 -0.08781,0.08118 -0.07235,0.12144 0.03954,0.1028 -0.08124,0.126397 -0.3483,0.06925 -0.166421,-0.03597 -0.266435,-0.03689 -0.329695,-0.0031 -0.122206,0.06542 -0.115288,0.17939 0.01447,0.23151 0.06434,0.02588 0.07764,0.04368 0.03307,0.04547 -0.0399,0.0018 -0.09859,-0.02263 -0.130225,-0.05426 -0.04529,-0.0453 -0.07858,-0.04475 -0.156579,0.0041 -0.09774,0.06075 -0.09691,0.06022 0.0052,-0.0832 0.09094,-0.127957 0.09469,-0.153348 0.03359,-0.214458 -0.0381,-0.0381 -0.08368,-0.154818 -0.101286,-0.259415 -0.0284,-0.16711 -0.04454,-0.186437 -0.133325,-0.160197 -0.05571,0.01653 -0.124563,0.05966 -0.152963,0.0956 -0.02875,0.03595 -0.07678,0.06511 -0.10697,0.06511 -0.07944,0 -0.286287,0.143448 -0.286287,0.198438 0,0.02621 0.05642,0.03422 0.128674,0.01912 0.125445,-0.0266 0.125671,-0.02597 0.01964,0.02687 -0.08447,0.04207 -0.130478,0.04152 -0.203088,-0.0041 -0.07728,-0.04821 -0.104618,-0.04641 -0.148828,0.0093 -0.04709,0.05895 -0.07333,0.05571 -0.19482,-0.0248 l -0.115755,-0.07597 -0.03256,0.0894 c 0.0201,0.0283 0.03082,0.06742 0.02119,0.09663 -0.01047,0.0311 -0.02802,0.01188 -0.04341,-0.03514 l -0.06098,0.167948 c 0.06143,0.03122 0.06843,0.04239 0.0057,0.04496 -0.0098,3.71e-4 -0.01624,0.0026 -0.02377,0.0041 l -0.03411,0.09508 c 8.73e-4,0.0035 5.3e-4,0.0056 0.0016,0.0093 0.02247,0.08171 0.01548,0.08217 -0.02015,0.04031 l -0.216008,0.594796 c 0.0074,-0.0075 0.01212,-0.01762 0.02119,-0.02325 0.07116,-0.04457 0.07859,-0.03422 0.06098,0.08475 -0.01078,0.07441 -0.04474,0.135392 -0.07493,0.135392 -0.03526,0 -0.05044,-0.02965 -0.05478,-0.06563 l -0.08061,0.221174 c 0.03224,0.02838 0.06869,0.06226 0.10697,0.101804 0.08699,0.08986 0.149117,0.169016 0.137977,0.176215 -0.01114,0.0068 -0.09703,-0.06676 -0.191203,-0.163814 -0.02856,-0.02943 -0.04637,-0.05097 -0.0677,-0.07545 l -0.452169,1.243335 -1.118795,3.077848 -1.086239,-2.986897 c -0.013,0.0158 -0.02395,0.03222 -0.03927,0.04599 l -0.09974,0.0894 0.09612,-0.158131 c 0.0089,-0.01476 0.01243,-0.02682 0.01964,-0.04082 l -0.177767,-0.488857 c -0.11226,-0.02117 -0.135591,0.01032 -0.127124,0.148828 0.0068,0.111789 -0.0032,0.142645 -0.03152,0.09663 -0.03379,-0.05467 -0.05493,-0.05608 -0.112655,-0.0083 -0.06035,0.04996 -0.08587,0.03033 -0.168465,-0.131776 -0.05359,-0.104952 -0.119659,-0.191201 -0.146761,-0.191201 -0.02707,0 -0.014,0.03557 0.02946,0.07906 0.07408,0.07404 0.07331,0.08129 -0.01705,0.114721 -0.112464,0.04134 -0.11934,0.216278 -0.0098,0.251148 0.03968,0.01257 0.09831,0.06471 0.130225,0.115755 0.05,0.08015 0.04352,0.100306 -0.04703,0.148828 -0.05776,0.0309 -0.11577,0.04931 -0.128674,0.04031 -0.0129,-0.009 -0.02994,0.01889 -0.03824,0.06201 -0.01172,0.06074 0.0204,0.079 0.14056,0.0801 0.129721,0.0013 0.141984,0.0099 0.07286,0.05013 -0.04565,0.0266 -0.07076,0.06755 -0.05581,0.09198 0.01495,0.02413 -0.07235,0.02606 -0.07235,0.0041 0,-0.02156 -0.08614,-0.07813 -0.191203,-0.125574 -0.161533,-0.07297 -0.196969,-0.07586 -0.231511,-0.02016 -0.02552,0.04134 0.04649,0.137774 -0.0078,0.138493 -0.09281,7.94e-4 -0.149569,0.07406 -0.10852,0.14056 0.01812,0.02912 0.09083,0.0208 0.197403,-0.02376 0.09277,-0.03881 0.179104,-0.06064 0.19172,-0.04806 0.01262,0.01257 -0.01356,0.03685 -0.05788,0.05374 -0.178031,0.06829 -0.194649,0.440282 -0.01964,0.440282 0.07448,0 0.0816,0.01582 0.04134,0.09095 -0.03548,0.0665 -0.03247,0.100997 0.01033,0.128675 0.03832,0.02445 0.0051,0.04603 -0.0956,0.06149 -0.08479,0.01294 -0.154526,0.0444 -0.15503,0.07028 -5.29e-4,0.02588 -0.04417,0.06291 -0.09715,0.08268 -0.07728,0.0284 -0.08547,0.04876 -0.04082,0.102319 0.03062,0.03706 0.09112,0.05505 0.134359,0.04031 0.06599,-0.02265 -0.08527,0.137443 -0.077,0.175183 0.0083,0.03738 -0.179912,0.133004 -0.288354,0.236162 -0.162323,0.154559 -0.187058,0.199525 -0.140043,0.256315 0.05003,0.06 0.06405,0.05969 0.111104,-0.0047 0.02951,-0.04061 0.09538,-0.0791 0.146244,-0.0863 0.05082,-0.0072 0.124155,-0.07948 0.163298,-0.160713 0.06862,-0.14234 0.07363,-0.14401 0.130741,-0.05271 0.03501,0.05605 0.08259,0.08059 0.116272,0.06046 0.03138,-0.01905 -0.0762,0.139348 0,0.110588 0.05334,-0.02013 0.09362,-0.0065 0.110588,0.03772 0.01467,0.0381 0.06024,0.06976 0.101285,0.06976 0.05442,0 0.06037,0.01394 0.02274,0.05168 -0.03763,0.03775 -0.08808,0.02424 -0.187069,-0.04909 -0.09701,-0.07156 -0.164561,-0.08965 -0.236161,-0.06304 -0.09939,0.03666 -0.105937,0.04684 -0.105937,0.171566 0,0.03559 -0.06271,0.07704 -0.139526,0.0925 -0.107368,0.02156 -0.132581,0.04655 -0.109038,0.108006 0.02337,0.06074 0.01175,0.07261 -0.04806,0.04961 -0.13975,-0.05356 -0.08296,0.01143 0.0739,0.08475 0.08378,0.03922 0.115389,0.0608 0.07028,0.04857 -0.06592,-0.01834 -0.08216,0.007 -0.08216,0.129193 0,0.08375 0.03542,0.202245 0.07855,0.264065 0.0431,0.06147 0.0555,0.09787 0.02739,0.08062 -0.07649,-0.04708 -0.0411,0.255077 0.04599,0.39274 0.04324,0.06829 0.05911,0.151439 0.03927,0.204639 -0.02908,0.07764 -0.04089,0.07029 -0.09405,-0.05839 -0.07803,-0.188346 -0.125108,-0.156363 -0.165365,0.112139 -0.04155,0.27677 0.02563,0.367371 0.241329,0.327112 0.113331,-0.02119 0.155029,-0.01241 0.155029,0.03359 0,0.03487 0.02469,0.08763 0.05478,0.117821 0.04169,0.0417 0.08098,0.01984 0.164331,-0.09302 0.06014,-0.08159 0.109038,-0.124556 0.109038,-0.09509 0,0.02911 -0.02125,0.06583 -0.04703,0.08165 -0.07239,0.04493 -0.05502,0.16433 0.02377,0.16433 0.03868,0 0.105673,-0.09767 0.149345,-0.114205 0.07462,-0.02876 0.07462,-0.02495 0,0.05736 -0.04367,0.04817 -0.07906,0.112437 -0.07906,0.142626 0,0.0302 -0.06321,0.05478 -0.14056,0.05478 -0.07731,0 -0.357874,-0.137956 -0.415995,-0.192236 -0.05812,-0.05428 -0.120399,-0.08376 -0.137976,-0.06615 -0.01758,0.01762 0.0044,0.05824 0.04909,0.09095 0.04468,0.0327 0.06911,0.07172 0.05426,0.08682 -0.05697,0.05679 0.03826,0.221176 0.128157,0.221176 0.05133,0 0.08025,0.02167 0.06408,0.04754 -0.01621,0.02625 -0.04889,0.03541 -0.07286,0.02066 -0.0556,-0.03451 -0.05653,0.355169 -0.001,0.442867 0.06391,0.100643 0.19172,0.02355 0.19172,-0.116271 0,-0.09059 0.01873,-0.116406 0.07028,-0.09664 0.0629,0.02445 0.09126,-0.02254 0.07545,-0.122473 -0.0031,-0.01939 0.08849,-0.07186 0.08888,-0.116787 5.29e-4,-0.0629 0.01042,-0.0678 0.04082,-0.01963 0.05453,0.08591 0.07316,0.08799 0.162264,0.01394 0.04263,-0.03558 0.07752,-0.114588 0.07752,-0.175699 0,-0.112504 0.167689,-0.346231 0.248564,-0.346231 0.0243,0 0.02166,0.0277 -0.0062,0.06149 -0.02786,0.03343 -0.03973,0.102595 -0.02636,0.153996 0.0152,0.05787 -0.01211,0.125711 -0.07235,0.18035 -0.05316,0.04816 -0.09663,0.116708 -0.09663,0.151929 0,0.03523 -0.05889,0.07554 -0.130742,0.08992 -0.15862,0.03199 -0.334626,0.276739 -0.316259,0.440283 0.01747,0.155271 0.01183,0.151045 0.119372,0.09353 0.07401,-0.03954 0.08454,-0.06953 0.04806,-0.137459 -0.04205,-0.07872 -0.03613,-0.08171 0.06408,-0.03462 l 0.111104,0.05219 -0.123506,0.119372 c -0.107437,0.103879 -0.136384,0.111345 -0.221175,0.05994 -0.05359,-0.03271 -0.161903,-0.02551 -0.145728,-0.0708 0.04906,-0.136588 -0.02678,-0.09332 -0.262,0.150379 -0.17652,0.182954 -0.217972,0.255672 -0.19637,0.341582 0.01589,0.06326 -0.01374,0.204497 -0.07028,0.336413 -0.05359,0.125084 -0.085,0.266909 -0.06976,0.314708 0.03429,0.108191 0.162264,0.115337 0.162264,0.0093 0,-0.07148 0.0068,-0.07075 0.08785,0.0026 0.07516,0.06793 0.09163,0.06944 0.114205,0.01085 0.02865,-0.07476 -0.07404,-0.188812 -0.12454,-0.138493 -0.01696,0.01691 -0.03101,-0.0254 -0.03101,-0.09405 0,-0.141621 0.03608,-0.158229 0.113688,-0.05219 0.06693,0.09166 0.21818,0.118647 0.30024,0.05323 0.08896,-0.07081 0.245101,-0.0804 0.394808,-0.02326 0.161029,0.06147 0.168552,0.126825 0.01137,0.09664 -0.08774,-0.01688 -0.116789,-0.0028 -0.116789,0.05684 0,0.06434 0.02891,0.07384 0.152446,0.05012 l 0.151928,-0.02946 -0.129191,0.100253 c -0.07102,0.05499 -0.23897,0.219636 -0.273368,0.260967 -0.05255,0.06326 -0.05133,0.08374 0.0083,0.128674 0.03907,0.02947 0.07068,0.102593 0.07028,0.162264 -6.88e-4,0.09418 -0.0079,0.09845 -0.05478,0.0341 -0.02991,-0.04097 -0.08708,-0.06145 -0.127124,-0.04599 -0.04644,0.01796 -0.101428,-0.01609 -0.151929,-0.09302 -0.107328,-0.163909 -0.146132,-0.152259 -0.184485,0.05478 -0.0179,0.09669 -0.06356,0.242266 -0.101802,0.323496 -0.09058,0.192299 -0.02128,0.469474 0.170016,0.679029 0.07534,0.08231 0.228849,0.318209 0.389123,0.44545 0.275834,0.21854 0.412041,0.299778 0.613399,0.364836 0.08001,0.02588 0.07697,0.03648 -0.03514,0.12454 -0.153296,0.120771 -0.154213,0.170971 -0.0047,0.239262 0.09978,0.04529 0.128723,0.04003 0.188102,-0.03617 0.0386,-0.04923 0.06598,-0.06893 0.06098,-0.04341 -0.005,0.02588 0.217375,0.382548 0.2682,0.300239 0.01894,-0.03057 0.09128,-0.03931 0.178801,-0.0217 0.26505,0.05392 0.545186,0.06535 0.545186,0.02222 0,-0.02336 0.333612,-0.06748 0.363802,-0.09767 0.04026,-0.04023 0.08484,-0.04131 0.165365,-0.0047 0.09274,0.04242 0.120276,0.03419 0.173116,-0.05064 0.0345,-0.05536 0.06221,-0.111443 0.06149,-0.124024 -0.0021,-0.0381 0.312091,-0.230079 0.395841,-0.281119 0.08375,-0.05104 0.152446,-0.126921 0.152446,-0.168982 0,-0.05966 0.01448,-0.06511 0.06408,-0.02379 0.06542,0.05464 0.100337,0.03101 0.193787,-0.130741 0.02732,-0.04745 -0.04598,-0.04457 0.0036,-0.112136 0.0496,-0.06758 0.145494,-0.145917 0.213423,-0.174667 0.06793,-0.02912 0.343063,-0.27292 0.365353,-0.2589 0.04852,0.03019 0.115416,-0.108466 0.102836,-0.213424 -0.005,-0.04134 0.02299,-0.101647 0.06253,-0.134358 0.0399,-0.03271 0.119067,-0.02899 0.176217,-0.06925 0.09669,-0.06757 0.107901,-0.06558 0.164331,0.03256 0.05895,0.102085 0.05956,0.101315 0.03152,-0.02376 -0.01869,-0.08339 0.109707,0.01442 0.247013,-0.04237 0.07297,-0.0302 0.148382,-0.05103 0.167432,-0.04703 0.07512,0.01617 0.223643,-0.160189 0.229443,-0.272333 0.0047,-0.09166 0.01281,-0.08177 0.03617,0.04547 l 0.03049,0.164333 0.0894,-0.293008 c 0.0496,-0.161028 0.104503,-0.293005 0.122473,-0.293005 0.055,0 0.03112,-0.234611 0.09043,-0.234611 0.02552,0 0.04667,0.0687 0.04703,0.152447 7.15e-4,0.120769 0.0111,0.137875 0.05064,0.08216 0.03918,-0.05499 0.04473,-0.045 0.02532,0.04703 -0.01581,0.07296 0.0067,0.158994 0.05994,0.229442 0.04709,0.06182 0.07641,0.147087 0.06563,0.189137 -0.01115,0.04241 0.02527,0.118144 0.08062,0.168465 0.0992,0.08982 0.102058,0.08945 0.166398,0.0011 0.07261,-0.09884 0.0062,-0.182507 0.04393,-0.196887 0.03774,-0.01437 0.08117,0.0061 0.09663,0.04599 0.0151,0.03985 0.05802,0.06073 0.09612,0.04599 0.114657,-0.04385 0.209784,0.128296 0.181384,0.328144 -0.02516,0.177924 -0.02451,0.179073 0.126091,0.164333 0.13479,-0.01331 0.160367,-0.04025 0.235128,-0.249082 0.04601,-0.129037 0.08336,-0.293775 0.08371,-0.366387 0,-0.07261 0.02281,-0.173908 0.05013,-0.225308 0.03702,-0.06901 0.0307,-0.179777 -0.02429,-0.42168 -0.07692,-0.337151 -0.06795,-0.416512 0.04599,-0.416512 0.09849,0 0.171402,-0.171458 0.154512,-0.364834 -0.01438,-0.16283 -0.0072,-0.172871 0.148829,-0.199472 0.355125,-0.06039 0.553756,-0.312031 0.617016,-0.782897 0.02336,-0.173969 0.05451,-0.395428 0.06925,-0.492477 0.01438,-0.09669 0.01047,-0.212937 -0.0093,-0.257866 -0.02013,-0.04493 -0.105229,-0.282321 -0.188619,-0.5271 -0.171812,-0.503931 -0.155054,-0.562036 0.164848,-0.562755 0.16031,-7.94e-4 0.172099,-0.01225 0.296105,-0.302308 0.07081,-0.16606 0.128675,-0.337053 0.128675,-0.379823 0,-0.112863 -0.322851,-0.535884 -0.408761,-0.535884 -0.07009,0 -0.124448,-0.05213 -0.271818,-0.260964 -0.0611,-0.08627 -0.05577,-0.164134 0.04703,-0.699701 l 0.115755,-0.60203 -0.115755,-0.398942 c -0.09669,-0.33356 -0.107486,-0.428238 -0.06615,-0.581358 0.02697,-0.100645 0.03632,-0.24293 0.02015,-0.316262 -0.01797,-0.08303 -8.99e-4,-0.188314 0.04547,-0.278535 0.07081,-0.136946 0.0686,-0.159851 -0.04031,-0.429431 l -0.115239,-0.284737 0.139527,-0.218075 c 0.111389,-0.175047 0.133431,-0.250311 0.110071,-0.378271 -0.02588,-0.140182 0.0038,-0.20772 0.243912,-0.56069 0.458645,-0.67467 0.609669,-0.76077 1.093473,-0.621667 0.167141,0.04816 0.33995,0.102233 0.38344,0.120923 0.06218,0.0266 0.105364,-0.01827 0.202055,-0.208773 0.10963,-0.216382 0.119867,-0.27646 0.09147,-0.542086 -0.03127,-0.291506 -0.03678,-0.301199 -0.237712,-0.419096 -0.113219,-0.06614 -0.205672,-0.130047 -0.205672,-0.142626 0,-0.0417 0.337199,-0.696972 0.492476,-0.957565 0.08447,-0.141979 0.167909,-0.32526 0.185519,-0.40721 0.01726,-0.08195 0.06168,-0.174089 0.0987,-0.204639 0.04745,-0.03954 0.06718,-0.159129 0.06718,-0.404626 0,-0.191581 0.02395,-0.491737 0.05271,-0.667143 0.03632,-0.21818 0.03799,-0.402269 0.0067,-0.583427 l -0.04498,-0.26421 h 0.188102 c 0.253405,0 0.704707,-0.298169 0.671277,-0.443383 -0.08375,-0.366269 -0.08242,-0.387098 0.03152,-0.522966 0.06254,-0.0744 0.190567,-0.288672 0.284737,-0.47594 0.09417,-0.187627 0.244846,-0.422565 0.334346,-0.521415 0.215668,-0.239027 0.221912,-0.476054 0.0217,-0.825789 -0.154562,-0.269939 -0.146355,-0.382638 0.03049,-0.426848 0.139822,-0.03522 0.196318,-0.137895 0.301274,-0.546219 0.06182,-0.240824 0.127345,-0.368182 0.267167,-0.519865 0.101722,-0.110348 0.194015,-0.22821 0.205155,-0.262 0.02408,-0.07189 0.274538,0.03849 0.449585,0.198438 l 0.104387,0.0956 0.115238,-0.259932 c 0.10352,-0.234355 0.112807,-0.302651 0.08837,-0.680062 -0.02408,-0.368069 -0.01758,-0.422782 0.05323,-0.450102 0.04421,-0.01689 0.125877,9.79e-4 0.180867,0.03979 0.05535,0.03846 0.178275,0.07028 0.273885,0.07028 0.09561,0 0.347114,0.06359 0.558106,0.141593 0.412277,0.152045 0.433628,0.148707 0.573091,-0.08888 l 0.0832,-0.14211 -0.130224,-0.0708 c -0.07188,-0.03882 -0.107105,-0.07163 -0.07906,-0.07235 0.08555,-0.0032 0.230009,-0.383894 0.225309,-0.592729 -0.0025,-0.125085 -0.04103,-0.242688 -0.106454,-0.326078 -0.109628,-0.139467 -0.07547,-0.205823 0.107487,-0.207223 0.0496,-3.7e-4 0.126479,-0.03379 0.17105,-0.07441 0.07404,-0.06686 0.09528,-0.06666 0.223242,-5.29e-4 0.175407,0.09058 0.211475,0.02772 0.117305,-0.204122 -0.05967,-0.147011 -0.0573,-0.169557 0.02429,-0.251147 0.145573,-0.145932 0.32477,-0.07064 0.621667,0.261483 0.245856,0.274972 0.510047,0.695221 0.510047,0.81132 0,0.04888 0.06824,0.05955 0.453202,0.06925 0.08159,0.0022 0.16013,0.03346 0.17415,0.06976 0.04277,0.111426 0.496973,-0.200099 0.529683,-0.363285 0.03199,-0.161387 0.08024,-0.164379 0.271818,-0.01809 0.08195,0.06254 0.226536,0.128118 0.321427,0.145728 0.09453,0.01797 0.22453,0.07386 0.288872,0.12454 0.09453,0.07441 0.116787,0.07834 0.116787,0.02119 0,-0.03882 0.03688,-0.08225 0.08217,-0.09663 0.0651,-0.02085 0.07924,-0.06747 0.06666,-0.226343 -0.01797,-0.223571 0.12795,-0.473734 0.249081,-0.427364 0.04493,0.01725 0.07635,-0.01799 0.09612,-0.107487 0.01617,-0.07333 0.03636,-0.156925 0.04496,-0.186035 0.0086,-0.02912 -0.01331,-0.139114 -0.04961,-0.24443 -0.07153,-0.207756 -0.08332,-1.41335 -0.01394,-1.41335 0.0496,0 0.227375,-0.37004 0.227375,-0.47284 0,-0.04745 0.05789,-0.100436 0.14056,-0.129191 0.07728,-0.02696 0.14056,-0.03253 0.14056,-0.0124 0,0.02013 0.03724,0.03305 0.08217,0.02946 0.124368,-0.01007 0.299223,-0.117043 0.269751,-0.164848 -0.01437,-0.02336 0.01624,-0.06498 0.06873,-0.09302 0.05212,-0.02804 0.09508,-0.08163 0.09508,-0.1193724 0,-0.037741 0.03787,-0.068729 0.08423,-0.068729 0.04637,0 0.109651,-0.025416 0.14056,-0.056327 0.04385,-0.043852 0.05633,-0.036614 0.05633,0.032039 0,0.099565 0.174789,0.3054074 0.2589,0.3054074 0.03019,0 0.09082,0.04016 0.135393,0.0894 0.04457,0.04924 0.222948,0.124344 0.39584,0.166398 0.301569,0.07404 0.318773,0.08665 0.444934,0.310576 l 0.13126,0.234094 -0.142629,0.304891 c -0.166783,0.356923 -0.155676,0.535544 0.04237,0.676444 l 0.128675,0.09198 0.05891,-0.141593 c 0.03557,-0.08591 0.0479,-0.231889 0.03101,-0.37207 -0.02373,-0.200566 -0.01556,-0.233896 0.0646,-0.259416 0.05032,-0.01581 0.1236,-0.09092 0.162782,-0.166398 0.03882,-0.07585 0.101473,-0.136943 0.138491,-0.136943 0.135871,0 0.189976,-0.30045 0.09509,-0.527616 -0.04457,-0.107113 0.01736,-0.102933 0.163298,0.01137 0.132633,0.103878 0.328266,0.121473 0.412377,0.03772 0.08375,-0.08375 0.06582,-0.228345 -0.05064,-0.412378 -0.110347,-0.1739687 -0.311018,-0.2412705 -0.428913,-0.1431434 -0.04673,0.03882 -0.06943,0.033919 -0.08992,-0.019637 -0.01511,-0.039178 -0.0615,-0.07183 -0.102839,-0.07183 -0.06038,0 -0.06893,0.029943 -0.04341,0.1467614 0.02265,0.10208 0.01651,0.13685 -0.02016,0.114205 -0.02839,-0.01761 -0.06464,5.55e-4 -0.0801,0.04082 -0.01545,0.04062 -0.05071,0.07338 -0.07803,0.07338 -0.02768,0 -0.0047,-0.04818 0.05064,-0.107487 l 0.10077,-0.107487 -0.09457,-0.081649 C 33.401992,9.890613 33.333812,9.857179 33.302543,9.860769 33.169188,9.877663 33.083508,9.852939 33.094287,9.800824 33.101787,9.76488 33.003537,9.731013 32.824536,9.70729 32.669977,9.686801 32.511955,9.65633 32.473135,9.639077 32.434675,9.622189 32.363167,9.61333 32.315007,9.61944 c -0.07189,0.00899 -0.07699,-7.408e-4 -0.02739,-0.053227 0.04745,-0.05104 0.136622,-0.055649 0.434599,-0.02222 0.361595,0.040617 0.745823,-0.011874 0.726053,-0.099219 -0.01259,-0.054994 0.196528,-0.3169838 0.196888,-0.3493328 0,-0.03199 0.07688,-0.1010454 0.171047,-0.1524452 0.136949,-0.075267 0.172903,-0.1240134 0.181901,-0.2470135 0.01222,-0.1728186 -0.103687,-0.2712452 -0.261482,-0.2211752 -0.05068,0.016102 -0.273971,-0.1695384 -0.417028,-0.095601 -0.193739,0.1002472 -0.223203,0.089374 -0.10387,-0.037724 0.09741,-0.1038419 0.09836,-0.1127758 0.01963,-0.1803509 -0.143058,-0.1231429 -0.253498,-0.1402868 -0.321427,-0.050643 -0.05964,0.078502 -0.06268,0.078264 -0.06408,5.291e-4 -0.0021,-0.1097364 -0.107794,-0.10371 -0.212389,0.011885 -0.09992,0.1105271 -0.172821,0.1229985 -0.134361,0.023254 0.01474,-0.03864 -0.07355,-0.086118 -0.06924,-0.1054201 0.0039,-0.019338 -0.0087,-0.072195 -0.02842,-0.1173054 -0.0381,-0.086625 -0.27945,-0.1131615 -0.390157,-0.042892 -0.138028,0.087596 -0.216665,0.8197027 -0.09302,0.8650637 0.04529,0.016605 -0.06012,0.12897 -0.03927,0.091984 0.05032,-0.089285 -0.198366,0.075577 -0.179316,0.039274 0.02553,-0.04928 0.01003,-0.059516 -0.0615,-0.040825 -0.09202,0.023974 -0.09109,0.018338 0.01603,-0.1395264 0.120409,-0.1773835 0.132615,-0.2343907 0.0708,-0.3317626 -0.03055,-0.048597 -0.05951,-0.03764 -0.128156,0.049093 -0.127606,0.1605619 -0.231228,0.2190816 -0.163299,0.091984 0.02876,-0.053233 0.07267,-0.1097227 0.09819,-0.1255739 0.08843,-0.054635 0.04651,-0.1166595 -0.08216,-0.1214395 -0.121129,-0.00453 -0.119465,-0.00706 0.0279,-0.041858 0.19589,-0.046368 0.249823,-0.099655 0.269232,-0.2666505 0.02625,-0.2204445 -0.02156,-0.3084197 -0.153476,-0.2831867 -0.09565,0.018333 -0.112586,0.00673 -0.09354,-0.065629 0.02803,-0.107437 -0.05133,-0.1137243 -0.192236,-0.014986 -0.09489,0.066388 -0.106772,0.066388 -0.132291,0 -0.01797,-0.046691 -0.05067,-0.070118 -0.08837,-0.07028 z m -2.133202,0.4459677 c -0.02723,-0.010829 -0.06116,0.00785 -0.08992,0.061495 -0.03599,0.066892 -0.03347,0.097505 0.0093,0.1147217 0.10567,0.042666 0.128158,0.032071 0.128158,-0.059945 0,-0.06504 -0.02032,-0.1054436 -0.04754,-0.1162719 z m -0.516765,0.2754355 c -0.02288,-2.022e-4 -0.04539,0.00677 -0.06408,0.02222 -0.07907,0.065849 -0.06919,0.183176 0.02067,0.2387451 0.07368,0.045505 0.186035,-0.025926 0.186035,-0.1183391 0,-0.079014 -0.07399,-0.1420204 -0.142626,-0.1426268 z m -0.483174,0.4847248 c -0.02521,0.00332 -0.0551,0.025612 -0.10542,0.069247 -0.078,0.06797 -0.09679,0.1134242 -0.06408,0.1529622 0.03199,0.03846 0.02597,0.073206 -0.0186,0.1105877 -0.05068,0.042054 -0.152383,-0.088884 -0.191203,-0.088884 -0.05355,0 -0.02522,0.2964759 -0.08165,0.2087729 -0.05967,-0.093095 -0.225826,-0.1059921 -0.225826,-0.017571 0,0.023723 -0.132018,0.065611 -0.113689,0.095085 0.02157,0.034866 -0.166914,0.00814 -0.166914,0.077515 0,0.1261636 0.235616,0.060743 0.190686,0.1452107 -0.02768,0.051759 -0.05013,0.1250397 -0.05013,0.1627809 0,0.056433 0.03251,0.05985 0.187068,0.020672 0.103159,-0.026239 0.203316,-0.125953 0.222726,-0.120923 0.1276,0.033787 0.26303,-0.092068 0.408244,-0.3803386 0.144129,-0.2864731 0.152753,-0.324703 0.08733,-0.3901569 -0.03289,-0.032745 -0.05334,-0.048274 -0.07855,-0.044959 z m -0.322978,1.0945069 c -0.02624,0.00103 -0.06496,0.013483 -0.122473,0.037207 -0.16962,0.07045 -0.170599,0.1392455 -0.0031,0.2247925 0.06254,0.03163 0.18171,0.05803 0.2651,0.05839 0.1445,3.71e-4 0.148708,-0.0045 0.09767,-0.116272 -0.02912,-0.064699 -0.07979,-0.1173051 -0.112137,-0.1173051 -0.03235,0 -0.06761,-0.025416 -0.07803,-0.056327 -0.0072,-0.021386 -0.02079,-0.031522 -0.04703,-0.030489 z m 5.64875,0.1984375 c 0.0049,-0.0049 0.01125,0.0015 0.0186,0.02015 0.01365,0.03379 0.01185,0.07446 -0.0036,0.08992 -0.0155,0.01582 -0.0266,-0.01189 -0.02479,-0.0615 0.0013,-0.02732 0.0049,-0.04363 0.0098,-0.04858 z m -6.326228,0.10852 c 0.0115,-0.03091 0.0072,0.201539 0.0047,0.201539 -0.0025,0 -0.04429,-0.04573 -0.09353,-0.101803 -0.07656,-0.08698 -0.07826,-0.09731 -0.01033,-0.07286 0.04314,0.01581 0.08808,0.0037 0.09922,-0.02687 z m -1.686202,0.177251 c -0.0081,0.0018 -0.01638,0.0066 -0.02429,0.01447 -0.03127,0.03127 -0.01063,0.126336 0.06304,0.286287 0.117897,0.256999 0.233368,0.308958 0.321428,0.144694 0.03989,-0.0744 0.03509,-0.10003 -0.0217,-0.121956 -0.0399,-0.01546 -0.07286,-0.05707 -0.07286,-0.09302 0,-0.03594 -0.03047,-0.06563 -0.06821,-0.06563 -0.03774,0 -0.09284,-0.04407 -0.121956,-0.0987 -0.02642,-0.04933 -0.05115,-0.07155 -0.07545,-0.06615 z m -0.281637,0.04806 c -0.0072,-0.0018 -0.0146,-3.71e-4 -0.02274,0.0047 -0.08191,0.05068 -0.138059,0.260436 -0.0863,0.322978 0.05068,0.0611 0.01799,0.211356 -0.04599,0.211356 -0.02013,0 -0.03409,-0.0351 -0.03049,-0.07751 0.004,-0.04745 -0.03203,-0.07987 -0.09457,-0.08527 -0.07513,-0.0061 -0.107807,0.023 -0.125057,0.112138 -0.03055,0.159228 0.0063,0.209118 0.0987,0.134358 0.05608,-0.04565 0.08009,0.0819 0.02222,0.104904 -0.126883,0.05104 -0.13933,0.139526 -0.01964,0.139526 0.04673,0 0.134587,0.05261 0.195337,0.117305 0.06039,0.06434 0.122203,0.116631 0.136943,0.116272 0.06865,-0.0022 0.132627,-0.08117 0.161747,-0.200504 0.01761,-0.07189 0.07251,-0.164969 0.122473,-0.20774 0.06794,-0.05787 0.07789,-0.09336 0.03979,-0.139009 -0.06254,-0.07547 -0.165933,-0.08016 -0.189653,-0.0083 -0.01007,0.02911 -0.05465,-0.0025 -0.09922,-0.0708 -0.0593,-0.09058 -0.06873,-0.147263 -0.03566,-0.209806 0.04686,-0.08743 0.02252,-0.251866 -0.02791,-0.264584 z m 0.145211,0.226342 c -0.01258,0.0073 -0.01912,0.02299 -0.01912,0.04599 0,0.03918 0.02604,0.08163 0.05839,0.09457 0.102079,0.04133 0.128675,0.03298 0.128675,-0.03927 0,-0.03882 -0.0089,-0.07028 -0.01964,-0.07028 -0.01078,0 -0.05291,-0.01261 -0.09353,-0.02842 -0.02372,-0.0092 -0.0422,-0.0099 -0.05478,-0.0026 z m -0.353466,1.135848 c 0.02588,-0.01582 0.07002,0.09016 0.101285,0.241846 0.0305,0.148572 0.06509,0.286172 0.077,0.305925 0.02526,0.04298 -0.0057,0.04548 -0.04754,0.0036 -0.01725,-0.01725 -0.03101,-0.0684 -0.03101,-0.113688 0,-0.04529 -0.02641,-0.110544 -0.05839,-0.144694 -0.07549,-0.0798 -0.100292,-0.256346 -0.04134,-0.293006 z M 25.009,12.372547 c 0.02121,-0.0033 0.05033,-0.0025 0.08268,0.0036 0.06434,0.01258 0.117305,0.03076 0.117305,0.04082 0,0.0097 -0.05297,0.01809 -0.117305,0.01809 -0.0647,0 -0.116789,-0.01853 -0.116789,-0.04082 0,-0.01099 0.0129,-0.01843 0.03411,-0.0217 z m 0.270267,0.109037 c 0.0068,0 0.02339,0.04265 0.03669,0.09405 0.01546,0.05859 -0.02872,0.08733 -0.06718,0.08733 -0.03846,0 0.02369,-0.181384 0.03049,-0.181384 z m -1.14515,0.09405 c 0.02873,0 0.0107,0.187586 0.03514,0.187586 0.02444,0 0.05543,0.04213 0.06873,0.09353 0.01618,0.06218 0.0017,0.09354 -0.04393,0.09354 -0.03774,0 -0.03629,-0.100619 -0.06253,-0.116789 -0.06358,-0.03918 -0.06104,-0.257866 0.0026,-0.257866 z m -1.120345,0.705384 c -0.02646,-0.0025 -0.06514,0.02351 -0.09767,0.07958 -0.02624,0.04528 -0.07309,0.01996 -0.100769,0.03721 -0.03235,0.01977 -0.01279,0.07177 0.05478,0.143661 0.05787,0.06147 0.133282,0.112138 0.167432,0.112138 0.07009,0 0.0847,-0.121487 0.01964,-0.161747 -0.02337,-0.01438 -0.03123,-0.06813 -0.01757,-0.11989 0.0151,-0.05769 6.35e-4,-0.08848 -0.02584,-0.09095 z m -1.16737,0.05529 c -0.0071,-0.0023 -0.01515,-0.0019 -0.02377,10e-4 -0.03271,0.01115 -0.05721,0.0909 -0.05581,0.179318 0.0025,0.119331 -0.02081,0.16988 -0.09198,0.19792 -0.08016,0.03127 0.02232,0.124855 -0.05891,0.125574 -0.05607,3.71e-4 -0.110973,-0.02589 -0.122473,-0.05788 -0.01474,-0.04242 -0.04867,-0.03333 -0.120923,0.03101 -0.05571,0.04925 -0.09061,0.100075 -0.07803,0.112655 0.01258,0.01258 -0.01137,0.04784 -0.05271,0.07803 -0.06147,0.04493 -0.0654,0.07443 -0.02119,0.157097 0.06147,0.1143 0.14489,0.130028 0.23151,0.04341 0.04601,-0.04637 0.06709,-0.04382 0.10232,0.01188 0.05934,0.09345 0.05713,0.152619 -0.0036,0.115238 -0.02695,-0.0169 -0.08091,-0.01836 -0.119373,-0.0036 -0.05464,0.02121 -0.05866,0.0474 -0.01912,0.121439 0.05967,0.11142 0.198809,0.123488 0.281119,0.02429 0.03199,-0.03882 0.04251,-0.07028 0.02274,-0.07028 -0.01977,0 0.03315,-0.04755 0.118339,-0.10542 0.213865,-0.145573 0.271065,-0.246736 0.202055,-0.357084 -0.03379,-0.05427 -0.03797,-0.104658 -0.01137,-0.131258 0.04637,-0.04601 -0.04526,-0.295904 -0.108521,-0.296623 -0.01941,-3.7e-4 -0.03514,-0.04375 -0.03514,-0.09767 0,-0.04313 -0.01381,-0.07222 -0.03514,-0.07906 z m 1.336352,0.05581 c -0.03619,-0.0067 -0.08268,0.02722 -0.08268,0.07493 0,0.02331 0.0313,0.03076 0.06976,0.01602 0.03849,-0.01474 0.05815,-0.04604 0.04341,-0.06976 -0.0075,-0.01231 -0.01842,-0.01896 -0.03049,-0.02119 z m 0.20929,0.24443 -0.07596,0.146761 c -0.04169,0.08087 -0.07545,0.158579 -0.07545,0.172599 h -5.29e-4 c 0,0.04673 0.121988,0.0266 0.199988,-0.03307 0.0665,-0.05068 0.06839,-0.07447 0.01447,-0.172599 z m 0.358118,0.298173 c 0.02588,0 0.06015,0.02115 0.07596,0.04702 0.01582,0.02552 0.0078,0.04651 -0.01809,0.04651 -0.02588,0 -0.05928,-0.02099 -0.07545,-0.04651 -0.01582,-0.02588 -0.0083,-0.04702 0.01757,-0.04702 z m -1.353406,1.597318 c 0.03882,-0.0014 0.1021,0.01742 0.14056,0.04186 0.06254,0.03954 0.06254,0.05173 0,0.108521 -0.07692,0.07045 -0.252513,0.05369 -0.207223,-0.01964 0.01797,-0.02907 0.05074,-0.02651 0.08992,0.0062 0.0435,0.03595 0.07145,0.03606 0.09302,0.0016 0.01689,-0.02731 -0.01836,-0.06894 -0.07803,-0.09302 -0.05967,-0.02372 -0.07706,-0.04437 -0.03824,-0.04547 z m -0.49196,1.169954 0.170532,0.0083 c 0.11861,0.0057 0.163458,0.02684 0.147278,0.06925 -0.01294,0.03343 -0.02637,0.05904 -0.02997,0.05684 -0.0036,-0.0022 -0.07,-0.03331 -0.147278,-0.06925 z m -0.04547,0.516765 c 0.03342,-0.0053 0.03217,0.0063 -0.01654,0.03721 -0.04493,0.0284 -0.0229,0.05505 0.08062,0.09818 0.07836,0.03235 0.16654,0.08808 0.19637,0.124023 0.0647,0.07764 0.06333,0.07764 -0.142627,-0.03307 -0.153481,-0.082 -0.166612,-0.08225 -0.256832,-0.0057 -0.09166,0.07763 -0.0927,0.07748 -0.02584,-0.0088 0.06542,-0.08411 0.0617,-0.08811 -0.05943,-0.06511 -0.175764,0.03343 -0.161946,-5.82e-4 0.03359,-0.08217 0.08898,-0.0372 0.157264,-0.05934 0.190686,-0.06459 z m -0.387573,0.07493 c 0.01052,0.0068 0.01121,0.02162 0.0026,0.04444 -0.0284,0.07368 -0.09109,0.08471 -0.129192,0.02325 -0.01402,-0.02301 0.015,-0.05217 0.0646,-0.06511 0.03125,-0.0083 0.05149,-0.0094 0.06201,-0.0026 z m -1.128097,1.612304 c 0.04349,-0.0018 0.09183,0.01789 0.108004,0.04341 0.03307,0.05392 0.03191,0.05392 -0.09353,0 -0.07656,-0.03271 -0.07917,-0.04051 -0.01447,-0.04341 z m -1.269173,0.01034 c -0.01693,-0.0034 -0.03359,-0.0017 -0.04806,0.0072 -0.07656,0.04745 -0.06173,0.110657 0.03101,0.129707 0.04493,0.0094 0.08992,-0.002 0.09922,-0.02429 0.01941,-0.04664 -0.03137,-0.102562 -0.08217,-0.112654 z m 1.2361,0.523999 c 0.0079,0.0033 0.0086,0.01202 5.29e-4,0.02532 -0.01582,0.02552 -0.04894,0.04651 -0.07338,0.04651 -0.06721,0 -0.05229,-0.03384 0.02894,-0.06511 0.02085,-0.0081 0.03606,-0.01 0.04392,-0.0067 z m 0.57981,0.0248 c 0.03918,0 0.0181,0.03782 -0.05271,0.09353 -0.06578,0.05176 -0.131661,0.09353 -0.146761,0.09353 -0.01509,0 0.0089,-0.04177 0.05271,-0.09353 0.04421,-0.0514 0.110461,-0.09353 0.146761,-0.09353 z M 20.39171,19.58761 c 0.01676,3.96e-4 0.03029,0.0078 0.03927,0.02222 0.01546,0.02516 0.06874,0.03105 0.118339,0.01344 0.04961,-0.01796 0.07909,-0.02339 0.06615,-0.01188 -0.120768,0.10675 -0.187068,0.140421 -0.187068,0.09405 0,-0.02912 -0.03688,-0.05339 -0.08217,-0.05374 -0.06865,-3.7e-4 -0.07079,-0.0078 -0.01292,-0.04444 0.02174,-0.01381 0.04163,-0.02004 0.0584,-0.01964 z m -0.620117,0.08837 c 0.02624,-0.01617 0.132609,0.230118 0.116789,0.271818 -0.03127,0.08123 -0.162781,-0.131217 -0.162781,-0.198437 0,-0.02445 0.02047,-0.05757 0.04599,-0.07338 z m -0.03204,0.17415 -0.0739,0.08785 c -0.0895,0.07512 -0.0945,0.09462 -0.03411,0.134875 0.03843,0.02588 0.05945,0.04918 0.04651,0.05168 -0.01294,0.0025 -0.07357,0.0097 -0.135393,0.01654 v 5.29e-4 c -0.06182,0.0068 -0.138071,0.04647 -0.168981,0.08888 -0.03092,0.04203 -0.06977,0.06304 -0.0863,0.04651 -0.01653,-0.01653 0.05588,-0.156514 0.03359,-0.157613 -0.02265,-0.0011 0.0272,-0.0314 0.110587,-0.0677 0.09058,-0.03918 0.142335,-0.09082 0.128675,-0.127124 -0.01509,-0.03917 0.01826,-0.0634 0.09302,-0.0677 z m -0.128675,0.411344 c 0.0086,0 -0.01497,0.07411 -0.05271,0.164331 -0.03774,0.09022 -0.03436,0.195164 -0.06563,0.232544 -0.03091,0.03738 -0.03616,0.150379 -0.0739,0.150379 -0.07656,0 -0.09115,-0.0584 -0.02429,-0.09974 0.02408,-0.01474 0.04092,-0.06395 0.03772,-0.10852 -0.005,-0.07081 0.136391,-0.338998 0.178801,-0.338998 z m -0.63562,0.09405 c -0.02552,0 -0.04651,0.02099 -0.04651,0.04651 0,0.02588 0.02099,0.04754 0.04651,0.04754 0.02588,0 0.04703,-0.02166 0.04703,-0.04754 0,-0.02552 -0.02115,-0.04651 -0.04703,-0.04651 z m -0.156579,0.435633 c -0.06416,-0.0039 -0.09208,0.01924 -0.127124,0.08475 -0.04745,0.08842 -0.04216,0.115062 0.03152,0.168982 0.0744,0.05424 0.0946,0.05319 0.139527,-0.0083 0.06829,-0.09307 0.15968,-0.09242 0.15968,0.001 0,0.04021 0.02115,0.06061 0.04703,0.04444 0.123287,-0.0762 0.02437,-0.235765 -0.172599,-0.278536 -0.03109,-0.0067 -0.05664,-0.01109 -0.07803,-0.0124 z m 0.702799,1.21698 c 0.0061,0.0026 0.0016,0.01951 -0.01085,0.05168 -0.01618,0.04241 -0.04883,0.07648 -0.07183,0.07648 -0.06003,0 -0.05177,-0.02648 0.02946,-0.09405 0.03001,-0.02481 0.04712,-0.03667 0.05323,-0.03411 z m -1.05885,0.09147 c -0.02786,0.004 -0.0524,0.01915 -0.08061,0.04754 -0.04101,0.04061 -0.05963,0.09702 -0.04238,0.125057 0.02193,0.03558 0.07787,0.02736 0.181384,-0.02584 0.148454,-0.07691 0.148252,-0.07761 0.04186,-0.125057 -0.04115,-0.01833 -0.0724,-0.02566 -0.100252,-0.0217 z m -2.932637,2.856673 -0.08527,0.234094 c 0.07945,-0.02196 0.109555,-0.05455 0.109555,-0.122473 0,-0.05565 -0.0095,-0.0891 -0.02429,-0.111621 z m -0.08165,0.345199 c -0.01272,3.44e-4 -0.03148,0.0032 -0.04547,0.0041 l -0.124541,0.342615 0.124024,0.02119 c 0.09633,0.01689 0.213774,-0.0019 0.317293,-0.05116 l 0.163814,-0.07803 -0.136942,-0.125057 c -0.09462,-0.08654 -0.162052,-0.11743 -0.298173,-0.113689 z m -3.653524,2.428275 c -0.05238,0.0086 -0.08423,0.02265 -0.08423,0.05013 0,0.0302 0.06026,0.04995 0.12609,0.06615 z M 11.61705,27.90132 c -0.02577,0 -0.04702,0.04214 -0.04702,0.09354 0,0.05176 0.02125,0.09405 0.04702,0.09405 0.02581,0 0.04703,-0.04229 0.04703,-0.09405 0,-0.0514 -0.02122,-0.09354 -0.04703,-0.09354 z m -0.51418,0.519864 c -0.07016,-0.01183 -0.08892,0.05367 -0.04134,0.179835 l 0.04289,0.113689 0.07493,-0.106971 c 0.06297,-0.08986 0.06479,-0.1138 0.01033,-0.14831 -0.03426,-0.02175 -0.06343,-0.0343 -0.08682,-0.03824 z m 0.67231,0.417547 c 0.0418,0 0.07596,0.03146 0.07596,0.07028 0,0.03846 -0.0078,0.07028 -0.01757,0.07028 -0.0097,0 -0.04387,-0.03182 -0.07596,-0.07028 -0.04777,-0.05751 -0.04472,-0.07028 0.01757,-0.07028 z m 0.239779,0.109038 c 0.101758,0.0061 0.143212,0.03387 0.151412,0.101801 0.0062,0.05141 -3.97e-4,0.06713 -0.01499,0.03514 -0.01459,-0.03235 -0.157129,-0.110411 -0.199471,-0.122992 -0.04234,-0.01222 -0.01409,-0.01865 0.06304,-0.01394 z m -1.19476,0.172598 c -0.02577,0 -0.04651,0.04162 -0.04651,0.09302 0,0.05176 0.02074,0.09405 0.04651,0.09405 0.02577,0 0.04703,-0.04229 0.04703,-0.09405 0,-0.0514 -0.02125,-0.09302 -0.04703,-0.09302 z m 0.772563,1.415936 c 0.08919,-0.01003 0.165182,-0.0019 0.142627,0.03462 -0.01445,0.02336 -0.06288,0.04222 -0.107487,0.04186 -0.04461,-7.94e-4 -0.13399,0.01484 -0.198437,0.03462 -0.100787,0.03055 -0.108801,0.02561 -0.05891,-0.03514 0.03061,-0.03739 0.133022,-0.06595 0.222208,-0.07597 z m 0.22996,0.0067 c 0.01185,0.0013 0.02933,0.0108 0.05064,0.02842 0.03781,0.03128 0.09511,0.0485 0.127641,0.03772 0.03253,-0.01079 0.100394,0.01855 0.150895,0.06563 0.121383,0.113191 0.264413,0.10927 0.295073,-0.0083 0.01348,-0.0514 0.05084,-0.09353 0.08268,-0.09353 0.09662,0 0.359596,0.102748 0.332279,0.129706 -0.01402,0.01402 -0.002,0.05386 0.02636,0.08837 0.04026,0.04852 0.03439,0.06305 -0.02636,0.06305 -0.04313,0 -0.08378,-0.121066 -0.157613,-0.159163 -0.123287,-0.06362 -0.140452,-0.06169 -0.211873,0.0217 -0.08202,0.09561 -0.217245,0.118618 -0.291972,0.04961 -0.02448,-0.02265 -0.123488,-0.06676 -0.220142,-0.09767 -0.09665,-0.03092 -0.175699,-0.07794 -0.175699,-0.104905 0,-0.01527 0.0062,-0.02207 0.01809,-0.02066 z m -1.471228,0.639236 c -0.02577,0 -0.04651,0.0326 -0.04651,0.07286 0,0.04021 0.02074,0.06025 0.04651,0.04444 0.02581,-0.01617 0.04703,-0.04894 0.04703,-0.07338 0,-0.02408 -0.02122,-0.04393 -0.04703,-0.04393 z m 0.391191,0.0217 c 0.01262,-0.0041 0.03463,-0.0035 0.06615,0.0026 0.04511,0.0086 0.100889,0.0168 0.12454,0.0186 0.02361,0.0021 0.122422,0.252503 0.10542,0.269751 -0.01704,0.01688 -0.03101,0.0076 -0.03101,-0.02119 0,-0.02839 -0.06325,-0.08938 -0.14056,-0.13539 -0.117106,-0.06901 -0.162384,-0.122161 -0.12454,-0.134361 z m -0.161747,0.0016 0.100769,0.09974 c 0.0555,0.05463 0.09328,0.139065 0.08372,0.187584 -0.01948,0.09849 -0.05516,0.05798 -0.133842,-0.151929 z m -0.201022,0.240813 c -0.01741,-0.01019 -0.03489,0.01117 -0.05219,0.06563 -0.02229,0.07045 -0.0157,0.117533 0.01809,0.128672 0.02933,0.01005 0.02582,0.150699 0.05116,0.217559 0.07052,0.18547 0.09655,0.144412 0.0646,-0.101804 -0.02435,-0.187806 -0.05264,-0.293089 -0.08165,-0.310057 z m 2.121835,0.804085 c 0.04184,-0.03163 -0.161462,0.196887 -0.17415,0.196887 -0.01269,0 0.01235,-0.09378 -0.01964,-0.133324 -0.04917,-0.06039 -0.0444,-0.06628 0.02997,-0.03824 0.04903,0.01834 0.1214,0.007 0.163815,-0.02532 z m -0.288355,0.0279 c 0.01427,0.01402 -0.02604,0.04584 -0.08992,0.07028 -0.06387,0.02408 -0.172712,0.110646 -0.241329,0.192235 -0.143308,0.170379 -0.155918,0.151112 -0.04909,-0.0739 0.04152,-0.08734 0.09384,-0.147862 0.116272,-0.133842 0.02243,0.01365 0.249796,-0.06916 0.264066,-0.05478 z m -1.562178,0.122473 c 0.01014,0 0.03067,0.03146 0.04547,0.07028 0.01485,0.03846 0.0064,0.07028 -0.0186,0.07028 -0.02498,0 -0.04547,-0.03182 -0.04547,-0.07028 0,-0.03882 0.0085,-0.07028 0.0186,-0.07028 z m 0.950846,0.430983 c -0.0093,-0.0047 -0.02348,-0.0045 -0.04341,0.0021 -0.03224,0.0108 -0.06461,0.07027 -0.07183,0.132808 -0.01265,0.109979 -0.01101,0.110799 0.05839,0.02273 0.0651,-0.08276 0.08471,-0.143394 0.05684,-0.157613 z M 10.51066,33.01008 c -0.03591,0 -0.06511,0.03146 -0.06511,0.07028 0,0.03846 0.04123,0.07028 0.09198,0.07028 0.06276,3e-6 0.08396,-0.02249 0.06563,-0.07028 -0.01485,-0.03882 -0.05659,-0.07028 -0.0925,-0.07028 z m -0.0124,0.422711 c -0.02669,-0.0019 -0.04898,0.01691 -0.06356,0.05788 -0.0115,0.03199 -0.02557,0.168709 -0.03101,0.303858 -0.0082,0.20452 0.0025,0.240916 0.06304,0.217556 0.0399,-0.01545 0.07247,-0.08348 0.07286,-0.15141 4.23e-4,-0.07473 0.01516,-0.102002 0.03669,-0.06821 0.02031,0.03199 0.06138,0.04033 0.0956,0.01913 0.04766,-0.02948 0.04314,-0.07255 -0.0217,-0.208772 -0.05131,-0.107609 -0.107439,-0.167029 -0.151929,-0.170016 z m -0.498161,1.076937 c -0.073182,0 -0.09319,0.05563 -0.039274,0.109556 0.053951,0.05391 0.109554,0.03405 0.109554,-0.03928 0,-0.03846 -0.0316,-0.07028 -0.07028,-0.07028 z m 1.077454,0.437184 c -0.01583,0.0031 -0.038,0.02749 -0.07648,0.07493 -0.04655,0.05751 -0.106317,0.09111 -0.132808,0.07493 -0.02649,-0.01656 -0.07199,-0.01524 -0.101286,0.0031 -0.03519,0.02156 -0.01502,0.06124 0.05891,0.117306 0.108192,0.08231 0.112217,0.08256 0.126091,-0.0016 0.0079,-0.04781 0.05521,-0.09765 0.10542,-0.110588 0.06427,-0.01691 0.08205,-0.04843 0.05994,-0.105937 -0.01427,-0.0372 -0.02396,-0.05529 -0.03979,-0.05219 z"
       id="path2263" />
    <path
       style="fill:#d542b1;stroke:#4367bb;stroke-width:1.32291663;stroke-linecap:butt;stroke-linejoin:miter;stroke-miterlimit:4;stroke-dasharray:none;stroke-opacity:1;fill-opacity:1"
       d="M 13.11115,26.25183 7.81949,11.69975 c -3.96875,-10.58333 14.55208,-10.58333 10.58333,0 z"
       id="path4504-4-9-0"
       inkscape:connector-curvature="0"
       sodipodi:nodetypes="cccc" />
    <circle
       style="opacity:1;fill:#5677c2;fill-opacity:1;stroke:#ffffff;stroke-width:1.32291663;stroke-linecap:round;stroke-linejoin:round;stroke-miterlimit:4;stroke-dasharray:none;stroke-dashoffset:0;stroke-opacity:1"
       id="path4506-2-1-1"
       cx="13.111144"
       cy="9.7153721"
       r="3.3072917" />
  </g>
</svg>
